<?xml version="1.0" encoding="utf-8"?>
<!-- Svg Vector Icons : http://www.onlinewebfonts.com/icon -->
<!DOCTYPE svg PUBLIC "-//W3C//DTD SVG 1.1//EN" "http://www.w3.org/Graphics/SVG/1.1/DTD/svg11.dtd">
<svg width="50" height="50" version="1.1" xmlns="http://www.w3.org/2000/svg" xmlns:xlink="http://www.w3.org/1999/xlink" x="0px" y="0px" viewBox="0 0 1000 1000" enable-background="new 0 0 1000 1000" xml:space="preserve">
<g id="Chart" style="fill:#666"><path d="M132.5,867.5V10H10v918.8c0,33.8,27.4,61.3,61.3,61.3H990V867.5H132.5z M285.6,745h61.3c16.9,0,30.6-13.7,30.6-30.6V408.1c0-16.9-13.7-30.6-30.6-30.6h-61.3c-16.9,0-30.6,13.7-30.6,30.6v306.3C255,731.3,268.7,745,285.6,745z M469.4,745h61.3c16.9,0,30.6-13.7,30.6-30.6V163.1c0-16.9-13.7-30.6-30.6-30.6h-61.3c-16.9,0-30.6,13.7-30.6,30.6v551.3C438.8,731.3,452.5,745,469.4,745z M653.1,745h61.3c16.9,0,30.6-13.7,30.6-30.6V530.6c0-16.9-13.7-30.6-30.6-30.6h-61.3c-16.9,0-30.6,13.7-30.6,30.6v183.8C622.5,731.3,636.2,745,653.1,745z M836.9,745h61.3c16.9,0,30.6-13.7,30.6-30.6V285.6c0-16.9-13.7-30.6-30.6-30.6h-61.3c-16.9,0-30.6,13.7-30.6,30.6v428.8C806.3,731.3,820,745,836.9,745z"/></g>
</svg>