<?xml version="1.0" encoding="utf-8"?>
<!-- Svg Vector Icons : http://www.onlinewebfonts.com/icon -->
<!DOCTYPE svg PUBLIC "-//W3C//DTD SVG 1.1//EN" "http://www.w3.org/Graphics/SVG/1.1/DTD/svg11.dtd">
<svg width="50" height="50" version="1.1" xmlns="http://www.w3.org/2000/svg" xmlns:xlink="http://www.w3.org/1999/xlink" x="0px" y="0px" viewBox="0 0 1000 1000" enable-background="new 0 0 1000 1000" xml:space="preserve">
<g transform="translate(0.000000,511.000000) scale(0.100000,-0.100000)" style="fill:#666"><path d="M4494.1,4967.1c-1268.2-273.9-2117.5-1509.9-1898.8-2761.9c138.1-782.5,715.8-2377.6,1595-4393.8c377.5-863.1,432.7-964.4,563.9-1044.9c156.5-94.4,338.3-94.4,492.6,0c128.9,80.6,151.9,117.4,370.6,605.3c939.1,2103.7,1606.5,3898.9,1774.6,4773.5c241.7,1256.7-534,2467.3-1795.3,2801.1C5311.2,5022.3,4793.3,5031.6,4494.1,4967.1z M5488.4,3975.1c432.7-163.4,784.8-520.2,920.6-939.1c73.7-232.5,82.9-547.8,18.4-824c-147.3-639.8-577.7-1829.8-1210.7-3335c-112.8-269.3-209.4-490.2-216.3-490.2c-27.6,0-656,1542.1-939,2301.6c-368.3,989.7-534,1581.2-534,1910.3c0,550.1,315.3,1054.1,817.1,1300.4c255.5,126.6,375.2,149.6,702,140.4C5285.8,4035,5359.5,4023.5,5488.4,3975.1z"/><path d="M4864.7,3286.9c-342.9-69-584.6-361.4-584.6-711.2c0-204.8,64.4-359,211.7-508.6c418.9-416.6,1109.4-195.6,1222.2,391.3c43.7,234.8-46,487.9-232.5,656C5318.1,3261.6,5074.1,3330.7,4864.7,3286.9z"/><path d="M2213.2-393.3c-239.4-41.4-494.8-202.5-626-395.9C1499.7-920.4,434.1-3387.7,383.4-3581.1C240.7-4108.1,609-4662.8,1166-4764.1c188.7-34.5,7443.4-34.5,7655.2,0c418.9,66.8,731.9,377.5,810.2,803.3c48.3,260.1,23,336.1-582.3,1751.5c-306.1,713.5-580,1332.6-607.6,1378.7c-82.9,131.2-244,273.9-391.3,347.6c-165.7,80.6-340.6,112.8-626,112.8H7210v-483.3v-481l209.4-6.9l211.7-6.9L8156-2575.3c290-676.7,527.1-1233.7,527.1-1238.3c0-4.6-1657.2-9.2-3682.6-9.2c-2025.4,0-3682.6,4.6-3682.6,9.2c0,4.6,237.1,561.6,527.1,1238.3l524.8,1226.8l200.2,6.9l197.9,6.9v481v483.3l-223.3-2.3C2420.3-374.9,2270.7-384.1,2213.2-393.3z"/></g>
</svg>